 <svg  version="1.0" xmlns="http://www.w3.org/2000/svg"  width="318.000000pt" height="328.000000pt" viewBox="0 0 318.000000 328.000000"  preserveAspectRatio="xMidYMid meet">  <g transform="translate(0.000000,328.000000) scale(0.050000,-0.050000)" fill="#ff6600" stroke="none"> <path d="M3348 5405 c-1578 -5 -1582 -5 -1620 -47 -35 -39 -38 -78 -38 -480 l0 -438 -335 0 c-462 0 -415 92 -415 -809 l0 -729 44 -31 c36 -25 109 -31 375 -31 l331 0 -5 -1090 c-5 -953 -2 -1098 25 -1150 l31 -60 1616 0 c1895 0 1683 -36 1683 287 l0 213 340 0 c468 0 420 -91 420 800 0 891 48 800 -420 800 l-340 0 0 319 c0 350 -10 381 -120 381 -110 0 -120 -31 -120 -381 l0 -319 -1076 0 c-898 0 -1083 -5 -1115 -28 -63 -46 -71 -1470 -10 -1531 40 -40 61 -41 1121 -41 l1080 0 0 -120 0 -120 -1430 0 -1430 0 0 1020 0 1020 1079 0 c953 0 1082 4 1110 31 27 28 31 126 31 769 l0 738 -44 31 c-39 27 -178 31 -1110 31 l-1066 0 0 95 0 95 1432 0 1431 0 -3 -260 c-6 -401 -8 -385 60 -420 54 -28 66 -28 120 0 l60 31 0 661 c0 668 -5 721 -75 753 -19 8 -747 13 -1617 10z m708 -385 l-6 -121 -1050 0 -1050 0 -6 121 -6 120 1062 0 1062 0 -6 -120z m740 -5 l-6 -125 -237 0 -238 0 1 115 c1 63 2 120 3 125 0 6 109 10 242 10 l241 0 -6 -125z m-886 -1375 l0 -540 -1355 0 -1355 0 0 540 0 540 1355 0 1355 0 0 -540z m1630 -1800 l0 -540 -1360 0 -1360 0 0 540 0 540 1360 0 1360 0 0 -540z"/> <path d="M1455 3938 c-41 -23 -53 -508 -14 -579 25 -48 749 -61 795 -15 45 45 32 570 -15 595 -50 27 -719 27 -766 -1z m621 -306 l6 -133 -235 5 -234 6 2 125 c1 69 2 127 3 130 1 3 103 4 227 2 l225 -3 6 -132z"/> <path d="M2551 3929 c-44 -45 -39 -101 13 -138 55 -38 947 -46 1053 -9 76 26 90 122 24 157 -69 37 -1052 28 -1090 -10z"/> <path d="M2544 3476 c-33 -33 -30 -87 7 -125 27 -27 106 -31 558 -31 574 0 580 1 567 114 l-6 56 -551 5 c-411 4 -557 -1 -575 -19z"/> <path d="M3071 2116 c-24 -35 -31 -100 -31 -280 0 -331 -20 -316 439 -316 443 0 421 -17 421 320 0 338 24 320 -430 320 -357 0 -369 -1 -399 -44z m629 -266 l0 -130 -230 0 -230 0 0 130 0 130 230 0 230 0 0 -130z"/> <path d="M4173 2118 c-20 -28 -25 -57 -14 -85 22 -60 1093 -79 1136 -20 33 46 32 78 -6 116 -57 56 -1076 46 -1116 -11z"/> <path d="M4208 1700 c-60 -24 -74 -94 -27 -141 58 -58 1054 -60 1106 -2 43 47 42 74 -7 123 -43 43 -972 61 -1072 20z"/> <path d="M4809 3751 c-99 -99 -29 -271 111 -271 39 0 80 18 111 49 31 31 49 72 49 111 0 39 -18 80 -49 111 -31 31 -72 49 -111 49 -39 0 -80 -18 -111 -49z"/> </g> </svg> 